PathFileType	4	(X/Y/Z)	Patient4_TMGait_0pt8_01_left_14.trc.trc
DataRate	CameraRate	NumFrames	NumMarkers	Units	OrigDataRate	OrigDataStartFrame	OrigNumFrames
90.909090909091	90.909090909091	6	33	mm	90.909090909091	18	       141
Frame#	Time	Sacral			L.Shoulder			Chest			R.Shoulder			Neck			R.ASIS			L.ASIS			R.Thigh.Superior			R.Thigh.Lateral			R.Thigh.Inferior			R.Patella			L.Thigh.Superior			L.Thigh.Lateral			L.Thigh.Inferior			L.Patella			L.Shank.Superior			L.Shank.Lateral			L.Shank.Inferior			R.Shank.Superior			R.Shank.Lateral			R.Shank.Inferior			R.Heel			R.Midfoot.Superior			R.Midfoot.Lateral			R.Toe			L.Heel			L.Midfoot.Lateral			L.Midfoot.Superior			L.Toe			L.Elbow			L.Wrist			R.Elbow			R.Wrist			
		X1	Y1	Z1	X2	Y2	Z2	X3	Y3	Z3	X4	Y4	Z4	X5	Y5	Z5	X6	Y6	Z6	X7	Y7	Z7	X8	Y8	Z8	X9	Y9	Z9	X10	Y10	Z10	X11	Y11	Z11	X12	Y12	Z12	X13	Y13	Z13	X14	Y14	Z14	X15	Y15	Z15	X16	Y16	Z16	X17	Y17	Z17	X18	Y18	Z18	X19	Y19	Z19	X20	Y20	Z20	X21	Y21	Z21	X22	Y22	Z22	X23	Y23	Z23	X24	Y24	Z24	X25	Y25	Z25	X26	Y26	Z26	X27	Y27	Z27	X28	Y28	Z28	X29	Y29	Z29	X30	Y30	Z30	X31	Y31	Z31	X32	Y32	Z32	X33	Y33	Z33	

18	15.097000000000	888.713073084414	1004.261847581628	527.848821791784	1019.537244803312	1427.989868405638	322.557282467085	1158.066227910020	1356.518580673910	454.130225047607	1120.000217554430	1429.282365490800	643.758590377942	1044.659403225685	1487.783875840370	478.526743669300	1126.875905745582	932.314786721111	605.033460222579	1069.621992730886	952.479050244931	334.114407026439	1112.454795825840	719.332777877231	580.005844423639	1006.428484679047	629.921602157988	648.099342896222	1056.927726680061	563.767502549016	563.998299088641	1036.231111013170	481.855816520943	568.955208561895	1151.092172140949	777.273567998313	361.806151215280	1106.292316265284	646.672718524551	281.996890544044	1217.101944558093	592.881949495482	337.110688591224	1249.518500066700	532.224941508170	329.317759309124	1238.159397506423	460.506574563524	321.188260024663	1181.023194982710	323.979186838335	276.195304798912	1282.155400907420	234.399592506010	323.597752358090	999.190179634747	399.390462233546	575.985319781432	921.359972265217	300.439478714946	638.356135502982	953.112482459303	204.467747156607	569.463990960398	807.949591744421	43.582683358558	533.845249068129	979.926170337416	96.991747144374	573.094211285396	890.021460346733	37.142215985586	609.474201003258	1098.678549083400	41.207635096248	601.975314599510	1220.999833760520	47.506313942783	370.235886628629	1290.854811664178	54.921971069634	286.496189947703	1353.289421825009	141.812404471052	299.358044002880	1488.217058307484	125.989036033298	268.399347210185	861.391984404673	1107.136096758791	249.837440286749	810.078623249362	853.252681336389	269.836262764353	1296.362584799730	1135.767670425019	744.169146761733	1533.429493434421	1174.747206812535	653.834515129256	
19	15.108000000000	889.001125711899	1003.265501989003	526.015316728969	1019.666203889387	1426.884945433953	320.914455175743	1158.123236096662	1355.428593195856	452.557741779279	1119.872319098159	1428.399997678348	641.992359721872	1044.551102132694	1486.597450346559	476.921137036717	1126.718425086672	930.971929617778	603.801125144782	1070.259348115558	951.009491162019	332.525764712467	1110.722718449818	717.720229549272	578.960849121821	1003.921875200694	629.147386872175	647.204601493386	1053.596367421927	562.493684796137	563.041739985145	1032.098574998419	480.592844089519	568.041151426736	1151.212835925769	775.366633045167	360.917713643767	1105.233319085049	644.186905875220	282.336750365769	1216.165216142716	590.511538471012	336.853342442175	1248.238148105746	530.024798964828	329.956104462689	1237.202457945556	458.351703943884	322.179377342723	1180.654157739788	321.308955958193	278.559306387918	1282.584784109603	232.720954479637	325.905764305629	994.098360888054	398.452404480276	575.299050877158	915.343722065775	300.480049139005	638.045047833588	945.752389197287	204.031950732759	569.246420764726	799.167468631970	43.822734266118	533.945579997945	971.085393516634	96.835728281754	572.965931388535	881.217829388299	37.154064560211	609.547791813541	1089.827390128599	41.041180797343	602.044777925206	1223.060155993649	45.786798991094	373.757108028579	1292.202736833169	53.529107633975	289.455491285294	1354.270240641193	140.490715538787	301.868250012669	1489.015100137832	125.338466922306	269.872873383600	856.528195225181	1109.091058966684	250.317652880182	799.508380588376	856.586846246807	272.102509113271	1299.909382567064	1137.586156649630	740.312241221867	1532.744192988923	1190.818620222828	647.959231373183	
20	15.119000000000	889.417086633784	1002.273803209839	523.970354298555	1019.866069320904	1425.781631884371	319.101511872606	1158.232493539730	1354.414670741458	450.869565006038	1119.685289063023	1427.592670722487	640.082957854220	1044.442477018648	1485.430565307737	475.145113477561	1126.688807775397	929.639471654419	602.471197888957	1071.150245841709	949.627678249550	330.812505783867	1109.287726484276	716.128366889641	577.812685144890	1001.750184369044	628.319135416887	646.123223348091	1050.757879165555	561.154638729898	561.969429145429	1028.443972250992	479.206780191349	566.982287172758	1151.866585025588	773.696152882830	359.856244403771	1104.624942253834	641.823879630576	282.872922025883	1215.644463753336	588.279577178520	336.716102694493	1247.135950277297	527.555581078346	330.759348510048	1236.006211960904	455.726225596614	323.385361945638	1179.052656714588	318.582412231295	281.299188341135	1281.109583694401	230.310206318006	328.651665589179	989.440217928346	397.386644566305	574.470502712117	909.605910708670	300.512861081068	637.535674159051	938.577820070363	203.539645609696	568.956201368527	790.407796477220	44.133449078700	534.050963444122	962.287593592673	96.697887465968	572.829965847997	872.437086592737	37.189428446195	609.617313763095	1080.986963660240	40.841646464444	602.136671864437	1221.856946942763	44.067744284602	377.855466094902	1290.052483134768	51.721919852359	292.793657339793	1352.562212090125	138.018833348791	304.785397007431	1486.818725886895	122.318858358034	271.271776355818	852.429084955105	1110.820710375987	250.569350053973	790.213124382345	859.684699425727	274.035743475081	1302.879196264255	1139.221449537508	736.520227447860	1530.824697970963	1205.770897751706	642.445012539895	
21	15.130000000000	889.960132572129	1001.273201234734	521.711002378659	1020.157066850186	1424.658479672284	317.112513425804	1158.404307614706	1353.457221724453	449.071469505948	1119.436701149598	1426.841374245316	638.039771344451	1044.342877008648	1484.269257231957	473.196099350946	1126.781203000991	928.312344623190	601.058217584156	1072.306356109261	948.315026550568	328.995083702974	1108.138681299774	714.546024280815	576.600424928156	999.873565994529	627.427302942885	644.856702158978	1048.402508242061	559.738738405458	560.796941176303	1025.261235078868	477.664851060376	565.784940895751	1153.010283852990	772.198668685880	358.674376580303	1104.450349748559	639.591500307095	283.547767311848	1215.483802059524	586.161885162518	336.764207196690	1246.154884280486	524.838935104763	331.803150766897	1234.617027524497	452.703169079335	324.778038745973	1176.480296635197	315.805780789410	284.198437307725	1278.066742018315	227.257355050621	331.682614281339	985.203720576426	396.179808356218	573.503048036792	904.129023771256	300.524140071049	636.823809962177	931.571580362531	202.988471560881	568.591282549542	781.660890762112	44.522201098167	534.166382870597	953.536683141604	96.591115422037	572.696317015091	863.674167455066	37.257573637565	609.684541041666	1072.160700352127	40.613880012810	602.248841068724	1217.829096738265	42.379370169297	382.190698291597	1284.972802647497	49.574811090640	296.270051848689	1348.671120144837	134.512525091316	307.982505949198	1482.207697438691	117.104114569450	272.670521523884	849.081971131954	1112.266645187703	250.555067960507	782.222124585558	862.455024658480	275.581449489644	1305.271934906558	1140.630089450600	732.850085555329	1527.806251790729	1219.541053936003	637.301051389144	
22	15.141000000000	890.620236389172	1000.251948745887	519.240717699211	1020.560744224438	1423.495938791074	314.943059357917	1158.646911157286	1352.537701779625	447.173557728287	1119.122247419739	1426.127899488066	635.876888262596	1044.263366944001	1483.104538716534	471.071735920242	1126.983570336924	926.989067651220	599.578651998226	1073.727978775266	947.055043285343	327.104936628158	1107.268447932642	712.968409057816	575.352437370444	998.273100984414	626.461330958149	643.407139023273	1046.531641365707	558.241599259591	559.529354549954	1022.562336276670	475.933972735583	564.452685918716	1154.579370198130	770.806821498432	357.434253031084	1104.673370345796	637.507541311837	284.271900539418	1215.619086869848	584.143039931346	337.017999175340	1245.242409131472	521.929669641382	333.101742434731	1233.094671352495	449.400721694491	326.281596763092	1173.245618539770	313.024973551621	287.011921987053	1273.859153967620	223.728799612204	334.805232305160	981.386996151307	394.823622108550	572.399045550025	898.907237533790	300.510384236421	635.915863940922	924.722662071846	202.385110261401	568.151574334701	772.917135975458	45.011122464869	534.297980536534	944.840494009033	96.526657967525	572.573175081642	854.924770379203	37.373624234653	609.750963672024	1063.354330704704	40.362737973518	602.376134719177	1211.541376342503	40.797794843387	386.420615020059	1277.654711216265	47.222737153272	299.641392560340	1343.170270891575	130.196248097617	311.299182385694	1475.829791744532	110.057250411094	274.123623846534	846.471058741295	1113.374434409973	250.240963165091	775.552951740850	864.809317910412	276.685778262222	1307.092468999176	1141.766540078140	729.355324309164	1523.827379395500	1232.085236997364	632.536215838959	
23	15.152000000000	891.376722083941	999.205308016889	516.572746147917	1021.097350325604	1422.281630635276	312.591985168431	1158.965034557136	1351.643535998556	445.190482250560	1118.737314259762	1425.440946799357	633.612538922504	1044.215867349137	1481.937370328074	468.771150101878	1127.277199238328	925.675290553067	598.048774675822	1075.399114603935	945.840395687611	325.182023470020	1106.677181410283	711.400878108201	574.081127159840	996.958016513552	625.411524783356	641.776105957633	1045.163835959344	556.667574882662	558.159796591010	1020.383872125022	473.984741246892	562.987527357640	1156.492953081724	769.467667783489	356.198918172653	1105.247628102759	635.606586359360	284.930624435527	1215.988024398360	582.227845378565	337.446771506762	1244.366267353911	518.921651629291	334.593435102925	1231.513297251061	445.974705880634	327.779251576688	1169.674656721410	310.321521241387	289.488158786389	1268.912489608172	219.943725493945	337.805449176257	978.001797058382	393.316795620165	571.159949967186	893.951077097302	300.482949668262	634.827831896327	918.031689071175	201.748467961803	567.639102594958	764.170039972039	45.642313932750	534.452343530485	936.213264037928	96.513347923800	572.465720515116	846.186980095524	37.561016262062	609.817262748221	1054.575606347589	40.093525818229	602.510499159403	1203.622678616748	39.417405685456	390.243774982712	1268.831745998915	44.829728221313	302.688955654033	1336.630340083216	125.372480065025	314.552813033643	1468.325675672743	101.696089151965	275.644747248704	844.584373261132	1114.095433601491	249.597409832077	770.215381010102	866.665164267299	277.298013693239	1308.346193480334	1142.586572541564	726.083927984464	1519.022747026376	1243.372536028276	628.156795090702	
